<mxfile host="app.diagrams.net" modified="2024-10-01T06:09:16.091Z" agent="Mozilla/5.0 (Windows NT 10.0; Win64; x64) AppleWebKit/537.36 (KHTML, like Gecko) Chrome/129.0.0.0 Safari/537.36" etag="uelzPX1gzlwoYrnFPdXY" version="24.2.2" type="device">
  <diagram name="Page-1" id="ldUXpQ2sZpzMMqR3ch-C">
    <mxGraphModel dx="1103" dy="568" grid="1" gridSize="10" guides="1" tooltips="1" connect="1" arrows="1" fold="1" page="1" pageScale="1" pageWidth="1100" pageHeight="850" math="0" shadow="0">
      <root>
        <mxCell id="0" />
        <mxCell id="1" parent="0" />
        <mxCell id="-54kdm-25VZZZ_9OjL3Z-2" value="מסך כניסה" style="swimlane;fontStyle=0;childLayout=stackLayout;horizontal=1;startSize=30;horizontalStack=0;resizeParent=1;resizeParentMax=0;resizeLast=0;collapsible=1;marginBottom=0;whiteSpace=wrap;html=1;" vertex="1" parent="1">
          <mxGeometry x="80" y="471" width="120" height="90" as="geometry">
            <mxRectangle x="40" y="120" width="90" height="30" as="alternateBounds" />
          </mxGeometry>
        </mxCell>
        <mxCell id="-54kdm-25VZZZ_9OjL3Z-3" value="כפתור התחברות" style="text;strokeColor=none;fillColor=none;align=center;verticalAlign=middle;spacingLeft=4;spacingRight=4;overflow=hidden;points=[[0,0.5],[1,0.5]];portConstraint=eastwest;rotatable=0;whiteSpace=wrap;html=1;" vertex="1" parent="-54kdm-25VZZZ_9OjL3Z-2">
          <mxGeometry y="30" width="120" height="30" as="geometry" />
        </mxCell>
        <mxCell id="-54kdm-25VZZZ_9OjL3Z-4" value="כפתור שכחתי סיסמה" style="text;strokeColor=none;fillColor=none;align=center;verticalAlign=middle;spacingLeft=4;spacingRight=4;overflow=hidden;points=[[0,0.5],[1,0.5]];portConstraint=eastwest;rotatable=0;whiteSpace=wrap;html=1;" vertex="1" parent="-54kdm-25VZZZ_9OjL3Z-2">
          <mxGeometry y="60" width="120" height="30" as="geometry" />
        </mxCell>
        <mxCell id="-54kdm-25VZZZ_9OjL3Z-8" value="מסך ראשי" style="swimlane;fontStyle=0;childLayout=stackLayout;horizontal=1;startSize=30;horizontalStack=0;resizeParent=1;resizeParentMax=0;resizeLast=0;collapsible=1;marginBottom=0;whiteSpace=wrap;html=1;" vertex="1" parent="1">
          <mxGeometry x="240" y="321" width="160" height="180" as="geometry" />
        </mxCell>
        <mxCell id="-54kdm-25VZZZ_9OjL3Z-9" value="רשימת מוצרים להשכרה" style="text;strokeColor=none;fillColor=none;align=center;verticalAlign=middle;spacingLeft=4;spacingRight=4;overflow=hidden;points=[[0,0.5],[1,0.5]];portConstraint=eastwest;rotatable=0;whiteSpace=wrap;html=1;" vertex="1" parent="-54kdm-25VZZZ_9OjL3Z-8">
          <mxGeometry y="30" width="160" height="30" as="geometry" />
        </mxCell>
        <mxCell id="-54kdm-25VZZZ_9OjL3Z-10" value="רשימת בקשות למוצרים" style="text;strokeColor=none;fillColor=none;align=center;verticalAlign=middle;spacingLeft=4;spacingRight=4;overflow=hidden;points=[[0,0.5],[1,0.5]];portConstraint=eastwest;rotatable=0;whiteSpace=wrap;html=1;" vertex="1" parent="-54kdm-25VZZZ_9OjL3Z-8">
          <mxGeometry y="60" width="160" height="30" as="geometry" />
        </mxCell>
        <mxCell id="-54kdm-25VZZZ_9OjL3Z-11" value="רשימת הפריטים שלי" style="text;strokeColor=none;fillColor=none;align=center;verticalAlign=middle;spacingLeft=4;spacingRight=4;overflow=hidden;points=[[0,0.5],[1,0.5]];portConstraint=eastwest;rotatable=0;whiteSpace=wrap;html=1;" vertex="1" parent="-54kdm-25VZZZ_9OjL3Z-8">
          <mxGeometry y="90" width="160" height="30" as="geometry" />
        </mxCell>
        <mxCell id="-54kdm-25VZZZ_9OjL3Z-39" value="הודעות" style="text;strokeColor=none;fillColor=none;align=center;verticalAlign=middle;spacingLeft=4;spacingRight=4;overflow=hidden;points=[[0,0.5],[1,0.5]];portConstraint=eastwest;rotatable=0;whiteSpace=wrap;html=1;" vertex="1" parent="-54kdm-25VZZZ_9OjL3Z-8">
          <mxGeometry y="120" width="160" height="30" as="geometry" />
        </mxCell>
        <mxCell id="-54kdm-25VZZZ_9OjL3Z-42" value="התראות" style="text;strokeColor=none;fillColor=none;align=center;verticalAlign=middle;spacingLeft=4;spacingRight=4;overflow=hidden;points=[[0,0.5],[1,0.5]];portConstraint=eastwest;rotatable=0;whiteSpace=wrap;html=1;" vertex="1" parent="-54kdm-25VZZZ_9OjL3Z-8">
          <mxGeometry y="150" width="160" height="30" as="geometry" />
        </mxCell>
        <mxCell id="-54kdm-25VZZZ_9OjL3Z-12" value="מסך החלפת נתוני משתמש" style="swimlane;fontStyle=0;childLayout=stackLayout;horizontal=1;startSize=30;horizontalStack=0;resizeParent=1;resizeParentMax=0;resizeLast=0;collapsible=1;marginBottom=0;whiteSpace=wrap;html=1;rounded=0;shadow=0;swimlaneLine=1;" vertex="1" collapsed="1" parent="1">
          <mxGeometry x="240" y="610" width="170" height="30" as="geometry">
            <mxRectangle x="240" y="561" width="160" height="60" as="alternateBounds" />
          </mxGeometry>
        </mxCell>
        <mxCell id="-54kdm-25VZZZ_9OjL3Z-16" value="רשימת הפריטים שלי" style="swimlane;fontStyle=0;childLayout=stackLayout;horizontal=1;startSize=30;horizontalStack=0;resizeParent=1;resizeParentMax=0;resizeLast=0;collapsible=1;marginBottom=0;whiteSpace=wrap;html=1;" vertex="1" collapsed="1" parent="1">
          <mxGeometry x="480" y="411" width="160" height="30" as="geometry">
            <mxRectangle x="480" y="381" width="160" height="70" as="alternateBounds" />
          </mxGeometry>
        </mxCell>
        <mxCell id="-54kdm-25VZZZ_9OjL3Z-23" value="רשימת בקשות למוצרים" style="swimlane;fontStyle=0;childLayout=stackLayout;horizontal=1;startSize=30;horizontalStack=0;resizeParent=1;resizeParentMax=0;resizeLast=0;collapsible=1;marginBottom=0;whiteSpace=wrap;html=1;" vertex="1" parent="1">
          <mxGeometry x="480" y="311" width="160" height="60" as="geometry" />
        </mxCell>
        <mxCell id="-54kdm-25VZZZ_9OjL3Z-25" value="מוצרים" style="text;strokeColor=none;fillColor=none;align=center;verticalAlign=middle;spacingLeft=4;spacingRight=4;overflow=hidden;points=[[0,0.5],[1,0.5]];portConstraint=eastwest;rotatable=0;whiteSpace=wrap;html=1;" vertex="1" parent="-54kdm-25VZZZ_9OjL3Z-23">
          <mxGeometry y="30" width="160" height="30" as="geometry" />
        </mxCell>
        <mxCell id="-54kdm-25VZZZ_9OjL3Z-28" value="רשימת מוצרים להשכרה" style="swimlane;fontStyle=0;childLayout=stackLayout;horizontal=1;startSize=30;horizontalStack=0;resizeParent=1;resizeParentMax=0;resizeLast=0;collapsible=1;marginBottom=0;whiteSpace=wrap;html=1;" vertex="1" parent="1">
          <mxGeometry x="480" y="210" width="160" height="60" as="geometry" />
        </mxCell>
        <mxCell id="-54kdm-25VZZZ_9OjL3Z-30" value="מוצרים" style="text;strokeColor=none;fillColor=none;align=center;verticalAlign=middle;spacingLeft=4;spacingRight=4;overflow=hidden;points=[[0,0.5],[1,0.5]];portConstraint=eastwest;rotatable=0;whiteSpace=wrap;html=1;" vertex="1" parent="-54kdm-25VZZZ_9OjL3Z-28">
          <mxGeometry y="30" width="160" height="30" as="geometry" />
        </mxCell>
        <mxCell id="-54kdm-25VZZZ_9OjL3Z-34" style="edgeStyle=orthogonalEdgeStyle;rounded=0;orthogonalLoop=1;jettySize=auto;html=1;exitX=1;exitY=0.5;exitDx=0;exitDy=0;entryX=0;entryY=0.5;entryDx=0;entryDy=0;" edge="1" parent="1" source="-54kdm-25VZZZ_9OjL3Z-10" target="-54kdm-25VZZZ_9OjL3Z-25">
          <mxGeometry relative="1" as="geometry" />
        </mxCell>
        <mxCell id="-54kdm-25VZZZ_9OjL3Z-35" style="edgeStyle=orthogonalEdgeStyle;rounded=0;orthogonalLoop=1;jettySize=auto;html=1;exitX=1;exitY=0.5;exitDx=0;exitDy=0;entryX=0;entryY=0.5;entryDx=0;entryDy=0;" edge="1" parent="1" source="-54kdm-25VZZZ_9OjL3Z-9" target="-54kdm-25VZZZ_9OjL3Z-30">
          <mxGeometry relative="1" as="geometry" />
        </mxCell>
        <mxCell id="-54kdm-25VZZZ_9OjL3Z-41" style="edgeStyle=orthogonalEdgeStyle;rounded=0;orthogonalLoop=1;jettySize=auto;html=1;exitX=1;exitY=0.5;exitDx=0;exitDy=0;entryX=0;entryY=0.5;entryDx=0;entryDy=0;" edge="1" parent="1" source="-54kdm-25VZZZ_9OjL3Z-3" target="-54kdm-25VZZZ_9OjL3Z-11">
          <mxGeometry relative="1" as="geometry" />
        </mxCell>
        <mxCell id="-54kdm-25VZZZ_9OjL3Z-43" style="edgeStyle=orthogonalEdgeStyle;rounded=0;orthogonalLoop=1;jettySize=auto;html=1;exitX=1;exitY=0.5;exitDx=0;exitDy=0;entryX=0;entryY=0.5;entryDx=0;entryDy=0;" edge="1" parent="1" source="-54kdm-25VZZZ_9OjL3Z-4" target="-54kdm-25VZZZ_9OjL3Z-12">
          <mxGeometry relative="1" as="geometry">
            <mxPoint x="200" y="630" as="targetPoint" />
          </mxGeometry>
        </mxCell>
        <mxCell id="-54kdm-25VZZZ_9OjL3Z-44" value="הודעות" style="swimlane;fontStyle=0;childLayout=stackLayout;horizontal=1;startSize=30;horizontalStack=0;resizeParent=1;resizeParentMax=0;resizeLast=0;collapsible=1;marginBottom=0;whiteSpace=wrap;html=1;" vertex="1" collapsed="1" parent="1">
          <mxGeometry x="480" y="490" width="160" height="30" as="geometry">
            <mxRectangle x="480" y="480" width="160" height="60" as="alternateBounds" />
          </mxGeometry>
        </mxCell>
        <mxCell id="-54kdm-25VZZZ_9OjL3Z-48" value="התראות" style="swimlane;fontStyle=0;childLayout=stackLayout;horizontal=1;startSize=30;horizontalStack=0;resizeParent=1;resizeParentMax=0;resizeLast=0;collapsible=1;marginBottom=0;whiteSpace=wrap;html=1;" vertex="1" collapsed="1" parent="1">
          <mxGeometry x="480" y="570" width="160" height="30" as="geometry">
            <mxRectangle x="480" y="565" width="160" height="60" as="alternateBounds" />
          </mxGeometry>
        </mxCell>
        <mxCell id="-54kdm-25VZZZ_9OjL3Z-52" style="edgeStyle=orthogonalEdgeStyle;rounded=0;orthogonalLoop=1;jettySize=auto;html=1;exitX=1;exitY=0.5;exitDx=0;exitDy=0;entryX=0;entryY=0.5;entryDx=0;entryDy=0;" edge="1" parent="1" source="-54kdm-25VZZZ_9OjL3Z-39" target="-54kdm-25VZZZ_9OjL3Z-44">
          <mxGeometry relative="1" as="geometry">
            <mxPoint x="460" y="510" as="targetPoint" />
          </mxGeometry>
        </mxCell>
        <mxCell id="-54kdm-25VZZZ_9OjL3Z-55" style="edgeStyle=orthogonalEdgeStyle;rounded=0;orthogonalLoop=1;jettySize=auto;html=1;exitX=1;exitY=0.5;exitDx=0;exitDy=0;entryX=0;entryY=0.5;entryDx=0;entryDy=0;" edge="1" parent="1" source="-54kdm-25VZZZ_9OjL3Z-11" target="-54kdm-25VZZZ_9OjL3Z-16">
          <mxGeometry relative="1" as="geometry">
            <mxPoint x="480" y="426" as="targetPoint" />
          </mxGeometry>
        </mxCell>
        <mxCell id="-54kdm-25VZZZ_9OjL3Z-58" value="השכרת מוצרים" style="swimlane;fontStyle=0;childLayout=stackLayout;horizontal=1;startSize=30;horizontalStack=0;resizeParent=1;resizeParentMax=0;resizeLast=0;collapsible=1;marginBottom=0;whiteSpace=wrap;html=1;" vertex="1" collapsed="1" parent="1">
          <mxGeometry x="720" y="291" width="160" height="30" as="geometry">
            <mxRectangle x="760" y="201" width="160" height="120" as="alternateBounds" />
          </mxGeometry>
        </mxCell>
        <mxCell id="-54kdm-25VZZZ_9OjL3Z-59" value="Item 1" style="text;strokeColor=none;fillColor=none;align=center;verticalAlign=middle;spacingLeft=4;spacingRight=4;overflow=hidden;points=[[0,0.5],[1,0.5]];portConstraint=eastwest;rotatable=0;whiteSpace=wrap;html=1;" vertex="1" parent="-54kdm-25VZZZ_9OjL3Z-58">
          <mxGeometry y="30" width="160" height="30" as="geometry" />
        </mxCell>
        <mxCell id="-54kdm-25VZZZ_9OjL3Z-60" value="Item 2" style="text;strokeColor=none;fillColor=none;align=center;verticalAlign=middle;spacingLeft=4;spacingRight=4;overflow=hidden;points=[[0,0.5],[1,0.5]];portConstraint=eastwest;rotatable=0;whiteSpace=wrap;html=1;" vertex="1" parent="-54kdm-25VZZZ_9OjL3Z-58">
          <mxGeometry y="60" width="160" height="30" as="geometry" />
        </mxCell>
        <mxCell id="-54kdm-25VZZZ_9OjL3Z-61" value="Item 3" style="text;strokeColor=none;fillColor=none;align=center;verticalAlign=middle;spacingLeft=4;spacingRight=4;overflow=hidden;points=[[0,0.5],[1,0.5]];portConstraint=eastwest;rotatable=0;whiteSpace=wrap;html=1;" vertex="1" parent="-54kdm-25VZZZ_9OjL3Z-58">
          <mxGeometry y="90" width="160" height="30" as="geometry" />
        </mxCell>
        <mxCell id="-54kdm-25VZZZ_9OjL3Z-62" style="edgeStyle=orthogonalEdgeStyle;rounded=0;orthogonalLoop=1;jettySize=auto;html=1;exitX=1;exitY=0.5;exitDx=0;exitDy=0;entryX=0;entryY=0.5;entryDx=0;entryDy=0;" edge="1" parent="1" source="-54kdm-25VZZZ_9OjL3Z-30" target="-54kdm-25VZZZ_9OjL3Z-58">
          <mxGeometry relative="1" as="geometry" />
        </mxCell>
        <mxCell id="-54kdm-25VZZZ_9OjL3Z-64" style="edgeStyle=orthogonalEdgeStyle;rounded=0;orthogonalLoop=1;jettySize=auto;html=1;exitX=1;exitY=0.5;exitDx=0;exitDy=0;entryX=0;entryY=0.5;entryDx=0;entryDy=0;" edge="1" parent="1" source="-54kdm-25VZZZ_9OjL3Z-25" target="-54kdm-25VZZZ_9OjL3Z-58">
          <mxGeometry relative="1" as="geometry" />
        </mxCell>
        <mxCell id="-54kdm-25VZZZ_9OjL3Z-65" style="edgeStyle=orthogonalEdgeStyle;rounded=0;orthogonalLoop=1;jettySize=auto;html=1;exitX=1;exitY=0.5;exitDx=0;exitDy=0;entryX=0;entryY=0.5;entryDx=0;entryDy=0;" edge="1" parent="1" source="-54kdm-25VZZZ_9OjL3Z-42" target="-54kdm-25VZZZ_9OjL3Z-48">
          <mxGeometry relative="1" as="geometry" />
        </mxCell>
      </root>
    </mxGraphModel>
  </diagram>
</mxfile>
